<?xml version="1.0" encoding="UTF-8"?>
<svg id="Layer_2" data-name="Layer 2" xmlns="http://www.w3.org/2000/svg" viewBox="0 0 214.21 34.97">
  <defs>
    <style>
      .cls-1 {
        fill: #fff;
      }

      .cls-2 {
        fill: #8244ff;
      }
    </style>
  </defs>
  <g id="Layer_1-2" data-name="Layer 1">
    <g>
      <g>
        <path class="cls-2" d="M2.46,34.97c-.85,0-1.68-.44-2.13-1.23-.68-1.18-.28-2.68,.9-3.36l13.61-7.86c1.52-.88,2.43-2.45,2.43-4.21s-.91-3.33-2.43-4.21L1.23,6.24C.05,5.56-.35,4.05,.33,2.88c.68-1.18,2.18-1.58,3.36-.9l13.61,7.86c3.06,1.77,4.89,4.94,4.89,8.47s-1.83,6.7-4.89,8.47l-13.61,7.86c-.39,.22-.81,.33-1.23,.33Z"/>
        <g>
          <path class="cls-2" d="M29.48,33.11c-1.36,0-2.46-1.1-2.46-2.46V10.82c0-1.36,1.1-2.46,2.46-2.46s2.46,1.1,2.46,2.46V30.65c0,1.36-1.1,2.46-2.46,2.46Z"/>
          <circle class="cls-2" cx="29.68" cy="3.28" r="3.28"/>
        </g>
      </g>
      <g>
        <path class="cls-1" d="M46.71,31.25V5.59h10.45c2.74,0,5.14,.54,7.2,1.63,2.06,1.09,3.67,2.6,4.82,4.53,1.15,1.93,1.72,4.16,1.72,6.67s-.57,4.74-1.72,6.67c-1.15,1.93-2.76,3.44-4.82,4.53-2.07,1.09-4.47,1.63-7.2,1.63h-10.45Zm2.71-2.35h7.59c2.27,0,4.25-.45,5.92-1.34,1.67-.89,2.98-2.13,3.9-3.7,.93-1.58,1.39-3.39,1.39-5.44s-.46-3.9-1.39-5.46c-.93-1.56-2.23-2.79-3.9-3.68-1.67-.89-3.65-1.34-5.92-1.34h-7.59V28.9Z"/>
        <path class="cls-1" d="M80.84,31.43c-1.44,0-2.69-.24-3.76-.71-1.06-.48-1.88-1.14-2.44-1.98-.56-.84-.84-1.81-.84-2.91,0-1,.24-1.91,.72-2.73,.48-.82,1.26-1.48,2.35-1.98,1.09-.5,2.55-.75,4.38-.75h6.64v1.94h-6.56c-1.86,0-3.15,.33-3.87,.99-.72,.66-1.08,1.48-1.08,2.46,0,1.1,.43,1.98,1.28,2.64,.85,.66,2.05,.99,3.59,.99s2.73-.33,3.79-1.01c1.06-.67,1.84-1.64,2.33-2.91l.59,1.8c-.49,1.27-1.34,2.29-2.55,3.04-1.21,.76-2.73,1.14-4.56,1.14Zm6.64-.18v-4.25l-.11-.7v-7.11c0-1.64-.46-2.9-1.37-3.78-.92-.88-2.28-1.32-4.09-1.32-1.25,0-2.43,.21-3.56,.62-1.12,.42-2.08,.97-2.86,1.65l-1.17-1.94c.98-.83,2.15-1.47,3.52-1.92s2.81-.68,4.33-.68c2.49,0,4.42,.62,5.77,1.85,1.36,1.23,2.03,3.11,2.03,5.63v11.95h-2.49Z"/>
        <path class="cls-1" d="M96.02,31.25V4.05h2.6V31.25h-2.6Z"/>
        <path class="cls-1" d="M106.17,7.75c-.54,0-.99-.18-1.36-.55-.37-.37-.55-.81-.55-1.32s.18-.95,.55-1.3c.37-.35,.82-.53,1.36-.53s.99,.17,1.36,.51c.37,.34,.55,.77,.55,1.28,0,.54-.18,.99-.53,1.36-.35,.37-.81,.55-1.37,.55Zm-1.32,23.5V12h2.6V31.25h-2.6Z"/>
        <path class="cls-1" d="M119.12,31.43c-1.44,0-2.69-.24-3.76-.71-1.06-.48-1.88-1.14-2.44-1.98-.56-.84-.84-1.81-.84-2.91,0-1,.24-1.91,.72-2.73,.48-.82,1.26-1.48,2.35-1.98,1.09-.5,2.55-.75,4.38-.75h6.64v1.94h-6.56c-1.86,0-3.15,.33-3.87,.99-.72,.66-1.08,1.48-1.08,2.46,0,1.1,.43,1.98,1.28,2.64,.85,.66,2.05,.99,3.59,.99s2.73-.33,3.79-1.01c1.06-.67,1.84-1.64,2.33-2.91l.59,1.8c-.49,1.27-1.34,2.29-2.55,3.04-1.21,.76-2.73,1.14-4.56,1.14Zm6.64-.18v-4.25l-.11-.7v-7.11c0-1.64-.46-2.9-1.37-3.78-.92-.88-2.28-1.32-4.09-1.32-1.25,0-2.43,.21-3.56,.62-1.12,.42-2.08,.97-2.86,1.65l-1.17-1.94c.98-.83,2.15-1.47,3.52-1.92s2.81-.68,4.33-.68c2.49,0,4.42,.62,5.77,1.85,1.36,1.23,2.03,3.11,2.03,5.63v11.95h-2.49Z"/>
        <path class="cls-1" d="M140.82,31.25V5.59h2.71V31.25h-2.71Z"/>
        <path class="cls-1" d="M160.14,11.82c1.56,0,2.94,.3,4.12,.9,1.19,.6,2.11,1.51,2.79,2.73,.67,1.22,1.01,2.76,1.01,4.62v11.18h-2.6v-10.92c0-2.03-.51-3.56-1.52-4.6-1.01-1.04-2.44-1.56-4.27-1.56-1.37,0-2.56,.28-3.57,.83s-1.8,1.34-2.35,2.38-.82,2.29-.82,3.76v10.12h-2.6V4.05h2.6v13.23l-.51-.99c.61-1.39,1.59-2.49,2.93-3.28,1.34-.79,2.94-1.19,4.8-1.19Z"/>
        <path class="cls-1" d="M179.5,31.43c-1.44,0-2.69-.24-3.76-.71-1.06-.48-1.88-1.14-2.44-1.98-.56-.84-.84-1.81-.84-2.91,0-1,.24-1.91,.72-2.73,.48-.82,1.26-1.48,2.35-1.98,1.09-.5,2.55-.75,4.38-.75h6.64v1.94h-6.56c-1.86,0-3.15,.33-3.87,.99-.72,.66-1.08,1.48-1.08,2.46,0,1.1,.43,1.98,1.28,2.64,.85,.66,2.05,.99,3.59,.99s2.73-.33,3.79-1.01c1.06-.67,1.84-1.64,2.33-2.91l.59,1.8c-.49,1.27-1.34,2.29-2.55,3.04-1.21,.76-2.73,1.14-4.56,1.14Zm6.64-.18v-4.25l-.11-.7v-7.11c0-1.64-.46-2.9-1.37-3.78-.92-.88-2.28-1.32-4.09-1.32-1.25,0-2.43,.21-3.56,.62-1.12,.42-2.08,.97-2.86,1.65l-1.17-1.94c.98-.83,2.15-1.47,3.52-1.92s2.81-.68,4.33-.68c2.49,0,4.42,.62,5.77,1.85,1.36,1.23,2.03,3.11,2.03,5.63v11.95h-2.49Z"/>
        <path class="cls-1" d="M194.67,31.25V4.05h2.6v13.64l-.37,3.89,.26,3.89v5.79h-2.49Zm9.94,.18c-1.69,0-3.2-.38-4.55-1.16-1.34-.77-2.41-1.89-3.19-3.35-.78-1.47-1.17-3.24-1.17-5.32s.4-3.88,1.19-5.33c.79-1.45,1.86-2.56,3.21-3.32,1.34-.76,2.85-1.14,4.51-1.14,1.83,0,3.48,.41,4.93,1.23,1.45,.82,2.6,1.96,3.43,3.43,.83,1.47,1.25,3.18,1.25,5.13s-.42,3.64-1.25,5.11-1.97,2.63-3.43,3.46c-1.45,.83-3.1,1.25-4.93,1.25Zm-.18-2.31c1.37,0,2.59-.31,3.67-.94,1.08-.62,1.93-1.5,2.57-2.64,.64-1.14,.95-2.45,.95-3.94s-.32-2.83-.95-3.96c-.64-1.12-1.49-2-2.57-2.62-1.08-.62-2.3-.93-3.67-.93s-2.6,.31-3.68,.93c-1.09,.62-1.94,1.5-2.57,2.62-.62,1.12-.93,2.44-.93,3.96s.31,2.8,.93,3.94c.62,1.14,1.48,2.02,2.57,2.64,1.09,.62,2.32,.94,3.68,.94Z"/>
      </g>
    </g>
  </g>
</svg>